<svg xmlns="http://www.w3.org/2000/svg" viewBox="0 0 512 512" fill="none">
  <defs>
    <linearGradient id="aura-gold-metallic" x1="0" y1="0" x2="512" y2="512" gradientUnits="userSpaceOnUse">
      <stop offset="0%" stop-color="#FFE57F" />
      <stop offset="50%" stop-color="#E5A93C" />
      <stop offset="100%" stop-color="#B87333" />
    </linearGradient>
  </defs>
  <circle cx="256" cy="256" r="256" fill="url(#aura-gold-metallic)"/>
  <path
    fill="#030712"
    transform="translate(256 256) scale(12) translate(-12 -12)"
    d="M4 14a1 1 0 0 1-.78-1.63l9.9-10.2a.5.5 0 0 1 .86.46l-1.92 6.02A1 1 0 0 0 13 10h7a1 1 0 0 1 .78 1.63l-9.9 10.2a.5.5 0 0 1-.86-.46l1.92-6.02A1 1 0 0 0 11 14z"
  />
</svg>
