<svg xmlns="http://www.w3.org/2000/svg" viewBox="0 0 1200 320" fill="none">
  <defs>
    <linearGradient id="aura-gold" x1="0" y1="0" x2="320" y2="320" gradientUnits="userSpaceOnUse">
      <stop stop-color="#C9A227"/>
      <stop offset="1" stop-color="#D4A017"/>
    </linearGradient>
  </defs>
  <!-- Icon -->
  <rect x="0" y="0" width="320" height="320" rx="80" fill="url(#aura-gold)"/>
  <path
    fill="#0f172a"
    transform="translate(40 40) scale(12)"
    d="M4 14a1 1 0 0 1-.78-1.63l9.9-10.2a.5.5 0 0 1 .86.46l-1.92 6.02A1 1 0 0 0 13 10h7a1 1 0 0 1 .78 1.63l-9.9 10.2a.5.5 0 0 1-.86-.46l1.92-6.02A1 1 0 0 0 11 14z"
  />
  <!-- Wordmark -->
  <text
    x="380"
    y="210"
    font-family="Segoe UI, system-ui, -apple-system, sans-serif"
    font-size="132"
    font-weight="700"
    letter-spacing="-2"
    fill="#181614"
  >Aura Syncro</text>
</svg>
