<svg xmlns="http://www.w3.org/2000/svg" viewBox="0 0 32 32" fill="none">
  <defs>
    <linearGradient id="aura-gold" x1="0" y1="0" x2="32" y2="32" gradientUnits="userSpaceOnUse">
      <stop stop-color="#C9A227"/>
      <stop offset="1" stop-color="#D4A017"/>
    </linearGradient>
  </defs>
  <rect width="32" height="32" rx="8" fill="url(#aura-gold)"/>
  <path
    fill="#0f172a"
    transform="translate(4 4)"
    d="M4 14a1 1 0 0 1-.78-1.63l9.9-10.2a.5.5 0 0 1 .86.46l-1.92 6.02A1 1 0 0 0 13 10h7a1 1 0 0 1 .78 1.63l-9.9 10.2a.5.5 0 0 1-.86-.46l1.92-6.02A1 1 0 0 0 11 14z"
  />
</svg>
